<svg xmlns="http://www.w3.org/2000/svg" viewBox="0 0 199.89 160.41"><defs><style>.cls-1{fill:#1a161a;}</style></defs><g id="Layer_2" data-name="Layer 2"><g id="Tail_Matee" data-name="Tail Matee"><g id="Vertical_Positivo" data-name="Vertical Positivo"><path class="cls-1" d="M162.75,27.81a73.17,73.17,0,0,1-1.69,11.4A99.12,99.12,0,0,1,158,50.06c-1,2.75-2,5.47-3.24,8.11a.49.49,0,0,1-.93-.23c.38-6.59.67-13.07.58-19.44A102.17,102.17,0,0,0,153.71,28c-.22-1.69-.46-3.35-.82-4.94a31.85,31.85,0,0,0-1.33-4.45,14.84,14.84,0,0,0-1.89-3.45,6.25,6.25,0,0,0-2.18-1.85,5,5,0,0,0-1.18-.4,4.58,4.58,0,0,0-.68-.12,2.39,2.39,0,0,0-.53,0,3.33,3.33,0,0,0-1.69.61,10.18,10.18,0,0,0-2.26,2.1,19.86,19.86,0,0,0-1.21,1.61c-.4.57-.8,1.2-1.18,1.85a65.61,65.61,0,0,0-4.17,8.78c-1.25,3.14-2.41,6.42-3.46,9.77s-2,6.76-2.87,10.22c-.43,1.74-.86,3.47-1.24,5.23l-.57,2.63-.33,1.51c-.14.59-.29,1.18-.48,1.76a21,21,0,0,1-3.47,6.56c-.2.25-.4.49-.62.73l-.44.5q-.39.42-.75.84c-.48.57-1,1.15-1.38,1.75a18.72,18.72,0,0,0-3.42,7.92,24.72,24.72,0,0,0-.35,4.52,21.27,21.27,0,0,0,.15,2.38q.08.6.18,1.2l0,.3.08.39.16.81a24.45,24.45,0,0,1,.2,6.38,24.87,24.87,0,0,1-.5,3.11,21.62,21.62,0,0,1-.9,3,30.66,30.66,0,0,1-1.32,2.95L113,103l-.09.2a86.52,86.52,0,0,0,10.63-2.38c3.71-1,7.39-2.34,11.06-3.78,1.85-.7,3.67-1.48,5.52-2.25l2.77-1.2c.92-.4,1.85-.81,2.81-1.19h0a17.58,17.58,0,0,1-2.05,2.34c-.74.7-1.51,1.38-2.28,2q-2.34,2-4.86,3.78a66.22,66.22,0,0,1-10.78,6.16,58.74,58.74,0,0,1-49.14-.05,65.66,65.66,0,0,1-10.76-6.17c-1.68-1.19-3.3-2.46-4.85-3.79-.77-.68-1.54-1.35-2.28-2.06s-1.45-1.43-2.15-2.18c1,.38,1.88.79,2.81,1.19l2.78,1.19c1.85.77,3.68,1.54,5.53,2.24,3.68,1.43,7.36,2.72,11.07,3.77,2.71.77,5.42,1.42,8.15,1.94l-.26-.52c-.49-1-.93-2-1.31-2.95a20.4,20.4,0,0,1-.91-3,24.87,24.87,0,0,1-.5-3.11,24.46,24.46,0,0,1,.21-6.38l.15-.81.08-.39,0-.3q.11-.6.18-1.2a21.27,21.27,0,0,0,.15-2.38,23.87,23.87,0,0,0-.35-4.52,18.6,18.6,0,0,0-3.42-7.92c-.43-.6-.89-1.18-1.38-1.75q-.36-.42-.75-.84l-.44-.5c-.22-.24-.42-.48-.62-.73a20.71,20.71,0,0,1-3.46-6.56c-.19-.58-.35-1.17-.49-1.76l-.33-1.51L72.87,53c-.38-1.76-.81-3.49-1.24-5.23q-1.29-5.19-2.87-10.22c-1.05-3.35-2.21-6.63-3.46-9.77A65.61,65.61,0,0,0,61.13,19c-.38-.65-.77-1.28-1.18-1.85s-.8-1.13-1.2-1.61a10.42,10.42,0,0,0-2.27-2.1,3.33,3.33,0,0,0-1.68-.61,2.48,2.48,0,0,0-.54,0,4.44,4.44,0,0,0-.67.12,5,5,0,0,0-1.19.4,6.34,6.34,0,0,0-2.18,1.85,15.22,15.22,0,0,0-1.89,3.45A31.85,31.85,0,0,0,47,23.07c-.36,1.59-.6,3.25-.82,4.94a99.45,99.45,0,0,0-.65,10.49c-.09,6.37.19,12.85.57,19.44a.48.48,0,0,1-.92.23c-1.22-2.64-2.29-5.36-3.25-8.11a96.91,96.91,0,0,1-3.09-10.85,73.17,73.17,0,0,1-1.7-11.4,49.86,49.86,0,0,1-.06-6,36.11,36.11,0,0,1,.86-6.28,28.54,28.54,0,0,1,1-3.26A22.1,22.1,0,0,1,40.45,9a17.79,17.79,0,0,1,5.41-6A17.14,17.14,0,0,1,49.62,1.1c.65-.24,1.31-.45,2-.62A20.58,20.58,0,0,1,53.76.09a15.63,15.63,0,0,1,4.62.19,16.34,16.34,0,0,1,4.26,1.45A20.25,20.25,0,0,1,66.11,4a24,24,0,0,1,2.72,2.57A26.88,26.88,0,0,1,71,9.22c.66.9,1.27,1.82,1.82,2.73A59.13,59.13,0,0,1,77.91,23a143.7,143.7,0,0,1,5.38,22.23c.32,1.85.61,3.7.91,5.53l.43,2.75.18,1.2c.06.29.11.6.19.89a10.34,10.34,0,0,0,1.42,3.2c.08.11.15.23.24.34l.06.08.12.15.25.32c.33.42.64.86,1,1.3s.6.9.89,1.36.57.93.83,1.42a27.08,27.08,0,0,1,3.35,12.71,23.18,23.18,0,0,1-.88,6.41,26.63,26.63,0,0,1-1,3c-.19.48-.4,1-.62,1.42l-.16.35-.13.27-.25.5a11.47,11.47,0,0,0-1,4.47,11,11,0,0,0,0,1.15v0a10.78,10.78,0,0,0,.16,1.14c.06.39.18.75.27,1.13s.25.73.41,1.08a6.6,6.6,0,0,0,1.17,1.92l.19.21.21.23.48.49c.29.28.58.56.88.83,0-.14,0-.28,0-.41,0-2.76,3.19-5,7.14-5s7.14,2.24,7.14,5a2.93,2.93,0,0,1,0,.41c.3-.27.59-.55.88-.83l.48-.49.21-.23.19-.21A6.6,6.6,0,0,0,110,97.44a8.85,8.85,0,0,0,.41-1.08c.09-.38.21-.74.28-1.13s.11-.76.15-1.14v0a8.84,8.84,0,0,0,0-1.15,11.64,11.64,0,0,0-1-4.47l-.26-.5-.12-.27-.17-.35c-.22-.46-.42-.94-.62-1.42a26.63,26.63,0,0,1-1-3,23.56,23.56,0,0,1-.88-6.41,27.09,27.09,0,0,1,3.36-12.71c.25-.49.54-1,.82-1.42s.58-.92.9-1.36.62-.88,1-1.3l.25-.32.12-.15.07-.08.23-.34a10.34,10.34,0,0,0,1.42-3.2c.08-.29.13-.6.19-.89l.18-1.2.43-2.75c.3-1.83.59-3.68.92-5.53A142.56,142.56,0,0,1,122,23,58.44,58.44,0,0,1,127.05,12c.56-.91,1.16-1.83,1.82-2.73a26.88,26.88,0,0,1,2.19-2.69A24,24,0,0,1,133.78,4a20.65,20.65,0,0,1,3.47-2.23A16.29,16.29,0,0,1,141.52.28a15.61,15.61,0,0,1,4.62-.19,20.39,20.39,0,0,1,2.17.39c.65.17,1.31.38,2,.62A17.6,17.6,0,0,1,154,3a17.9,17.9,0,0,1,5.41,6A23.15,23.15,0,0,1,161,12.27a28.45,28.45,0,0,1,1,3.26,35.18,35.18,0,0,1,.86,6.28A47.88,47.88,0,0,1,162.75,27.81Z"/><path class="cls-1" d="M129.75,70.4c-5.93.73-10.3,5-9.75,9.42a6.44,6.44,0,0,0,1.15,2.93l.72,1,.45-1.16c1.07-2.79,4.39-5,8.26-5.47s7.63.85,9.35,3.29l.72,1,.45-1.16a6.5,6.5,0,0,0,.4-3.13C141,72.7,135.68,69.67,129.75,70.4Z"/><path class="cls-1" d="M58.39,76.86a6.5,6.5,0,0,0,.4,3.13l.45,1.16.72-1c1.72-2.44,5.48-3.77,9.35-3.29s7.19,2.68,8.27,5.47L78,83.47l.72-1a6.33,6.33,0,0,0,1.15-2.93c.55-4.46-3.82-8.69-9.75-9.42S58.94,72.4,58.39,76.86Z"/><path class="cls-1" d="M107.32,138.82v20.69H98.53v-21l-6.66,21H87.1l-6.66-21v21H75.79V138.82a6.45,6.45,0,0,1,6.44-6.45h.1A6.44,6.44,0,0,1,88.5,137l3.12,10.51L94.7,137a6.45,6.45,0,0,1,6.18-4.63h0A6.44,6.44,0,0,1,107.32,138.82Z"/><path class="cls-1" d="M121.53,159.75a8,8,0,0,1-3.33.66,10.53,10.53,0,0,1-5.92-1.58,5.65,5.65,0,0,1,1.36-9.93,28.07,28.07,0,0,1,9.5-1.36V144a6.93,6.93,0,0,0-.48-2.88,1.8,1.8,0,0,0-1.82-1q-2.93,0-2.92,3.74a17.4,17.4,0,0,0,.16,2.06,2.24,2.24,0,0,1-1,.29,11.63,11.63,0,0,1-1.23.08,5.94,5.94,0,0,1-3.29-.85,2.81,2.81,0,0,1-1.31-2.56q0-2.72,3-3.91a18.66,18.66,0,0,1,6.82-1.19c3.26,0,5.76.57,7.48,1.72s2.59,3.16,2.59,6v9.25a6.82,6.82,0,0,0,1.28,4.31,4.14,4.14,0,0,1-1.71.82,7.76,7.76,0,0,1-2.07.29q-3.82,0-5-2.46A4.09,4.09,0,0,1,121.53,159.75Zm1-3.49a6.77,6.77,0,0,0,.62-3V149.6a6.25,6.25,0,0,0-3.91,1,4,4,0,0,0-1.31,3.41,4.51,4.51,0,0,0,.63,2.49,2.2,2.2,0,0,0,2,1A2.09,2.09,0,0,0,122.52,156.26Z"/><path class="cls-1" d="M132.49,140.39v-1.27A28,28,0,0,0,137,137a19.37,19.37,0,0,0,3.88-2.9h2.3v4.48h3.75v1.85h-3.75v14.35a3.46,3.46,0,0,0,.5,2,2.66,2.66,0,0,0,1.64,1,3.8,3.8,0,0,1-2,1.81,7.58,7.58,0,0,1-3,.57,5.43,5.43,0,0,1-3.91-1.31,5.11,5.11,0,0,1-1.35-3.83V140.39Z"/><path class="cls-1" d="M165.67,153.4a3.19,3.19,0,0,1,.29,1.38,4.32,4.32,0,0,1-1.23,3.12,7.43,7.43,0,0,1-3.15,1.89,13,13,0,0,1-4,.62c-3.54,0-6.27-1-8.21-3.06s-2.89-4.87-2.89-8.49,1-6.45,3.06-8.33,4.94-2.81,8.69-2.81a11.84,11.84,0,0,1,6.13,1.48,4.86,4.86,0,0,1,2.51,4.48q0,3.7-2.68,5.08a16.34,16.34,0,0,1-7.35,1.37,13.91,13.91,0,0,1-2.1-.12,7.75,7.75,0,0,0,1.17,4,3.78,3.78,0,0,0,3.31,1.42,7.36,7.36,0,0,0,3.29-.76,5.21,5.21,0,0,0,2.3-2.2A1.84,1.84,0,0,1,165.67,153.4Zm-7.09-6.25a4.21,4.21,0,0,0,1.26-3.47,5.34,5.34,0,0,0-.52-2.49,1.74,1.74,0,0,0-1.66-1q-2.83,0-3,8A6.15,6.15,0,0,0,158.58,147.15Z"/><path class="cls-1" d="M187.59,153.4a3.35,3.35,0,0,1,.29,1.38,4.29,4.29,0,0,1-1.24,3.12,7.46,7.46,0,0,1-3.14,1.89,13,13,0,0,1-4,.62c-3.53,0-6.27-1-8.2-3.06s-2.9-4.87-2.9-8.49,1-6.45,3.06-8.33,4.94-2.81,8.7-2.81a11.81,11.81,0,0,1,6.12,1.48,4.84,4.84,0,0,1,2.51,4.48q0,3.7-2.67,5.08a16.36,16.36,0,0,1-7.36,1.37,14.1,14.1,0,0,1-2.1-.12,7.66,7.66,0,0,0,1.18,4,3.78,3.78,0,0,0,3.31,1.42,7.32,7.32,0,0,0,3.28-.76,5.18,5.18,0,0,0,2.31-2.2A1.84,1.84,0,0,1,187.59,153.4Zm-7.09-6.25a4.23,4.23,0,0,0,1.25-3.47,5.47,5.47,0,0,0-.51-2.49,1.74,1.74,0,0,0-1.67-1c-1.89,0-2.87,2.66-3,8A6.18,6.18,0,0,0,180.5,147.15Z"/><path class="cls-1" d="M70,151.6a10.82,10.82,0,0,1-.69,1.22l-.2.27-.2.24a3.6,3.6,0,0,1-.41.45,4.54,4.54,0,0,1-1.83,1.08,4.84,4.84,0,0,1-3.5-.31,4.31,4.31,0,0,1-1.24-.92,4.61,4.61,0,0,1-.82-1.24l-.08-.18L61,152l-.07-.19c0-.07,0-.14-.07-.2-.07-.27-.15-.56-.2-.87,0-.14,0-.31-.07-.48s0-.33,0-.49c0-.33,0-.67,0-1a12.82,12.82,0,0,1,.27-2.12c.16-.75.38-1.54.64-2.38l.41-1.32c.13-.45.28-.92.42-1.41a18.83,18.83,0,0,0,.64-3.26,10.46,10.46,0,0,0,0-1.86,8.9,8.9,0,0,0-.37-1.89,7.85,7.85,0,0,0-.77-1.72,8.16,8.16,0,0,0-1.06-1.43,10.81,10.81,0,0,0-2.53-2,13.7,13.7,0,0,0-2.78-1.23.43.43,0,0,0-.56.29.44.44,0,0,0,.06.39h0c.57.79,1.13,1.55,1.61,2.31a11.63,11.63,0,0,1,1.14,2.25,5.08,5.08,0,0,1,.33,2,6,6,0,0,1-.42,1.87c-.48,1.32-1.36,2.86-2.2,4.68a23.87,23.87,0,0,0-1.14,3,16.5,16.5,0,0,0-.65,3.44,15.76,15.76,0,0,0,0,1.82c0,.31,0,.61.08.91s.08.6.14.92a11.82,11.82,0,0,0,.51,1.87c.06.15.11.31.18.46s.13.31.2.46.15.3.23.45.16.3.25.45a10.18,10.18,0,0,0,1.23,1.66A9.35,9.35,0,0,0,58,158.74a9.16,9.16,0,0,0,3.79,1.55,9,9,0,0,0,2,.1,8.47,8.47,0,0,0,1.95-.34,8.24,8.24,0,0,0,1.8-.78A7.7,7.7,0,0,0,69,158.09a6.47,6.47,0,0,0,1.77-3.2,5.89,5.89,0,0,0-.2-3.27.32.32,0,0,0-.4-.19.37.37,0,0,0-.17.16Z"/><path class="cls-1" d="M29.79,159.75a8.11,8.11,0,0,1-3.33.66,10.49,10.49,0,0,1-5.92-1.58,5.65,5.65,0,0,1,1.35-9.93,28.11,28.11,0,0,1,9.5-1.36V144a7.12,7.12,0,0,0-.47-2.88,1.82,1.82,0,0,0-1.83-1q-2.93,0-2.92,3.74a17.4,17.4,0,0,0,.16,2.06,2.23,2.23,0,0,1-1,.29,12,12,0,0,1-1.24.08,5.94,5.94,0,0,1-3.29-.85,2.84,2.84,0,0,1-1.31-2.56q0-2.72,3-3.91a18.66,18.66,0,0,1,6.82-1.19c3.27,0,5.76.57,7.49,1.72s2.59,3.16,2.59,6v9.25A6.82,6.82,0,0,0,40.72,159a4.14,4.14,0,0,1-1.71.82,7.7,7.7,0,0,1-2.07.29q-3.82,0-5-2.46A4.1,4.1,0,0,1,29.79,159.75Zm1-3.49a6.77,6.77,0,0,0,.62-3V149.6a6.25,6.25,0,0,0-3.91,1A4.08,4.08,0,0,0,26.17,154a4.43,4.43,0,0,0,.64,2.49,2.17,2.17,0,0,0,2,1A2.09,2.09,0,0,0,30.77,156.26Z"/><path class="cls-1" d="M49.89,129.54a3,3,0,0,1-.06,4.85,5.71,5.71,0,0,1-3.27.86,5.5,5.5,0,0,1-3.19-.84A2.71,2.71,0,0,1,42.16,132a2.84,2.84,0,0,1,1.29-2.48,5.7,5.7,0,0,1,3.27-.89A5.27,5.27,0,0,1,49.89,129.54Zm.7,25.16A6.82,6.82,0,0,0,51.86,159a4.17,4.17,0,0,1-1.73.82,8,8,0,0,1-2.09.29A5.91,5.91,0,0,1,44,158.85,4.93,4.93,0,0,1,42.53,155V138.54h8.06Z"/><path class="cls-1" d="M22.54,127.77v6.48h-5.8v6.09a15.27,15.27,0,0,1-.5,3.3,21.58,21.58,0,0,1-1,2.88c-.72,1.76-1.52,3.26-1.93,4.54a6.24,6.24,0,0,0-.33,1.79,4.87,4.87,0,0,0,.39,1.92,9.71,9.71,0,0,0,.81,1.56q.17.27.36.54c.48.72,1,1.42,1.61,2.16h0a.42.42,0,0,1,.07.38.41.41,0,0,1-.52.29A12.61,12.61,0,0,1,13,158.62a10.09,10.09,0,0,1-2.49-1.83c-.14-.15-.29-.3-.42-.46a8.13,8.13,0,0,1-.64-.87,7.88,7.88,0,0,1-.8-1.62,8.59,8.59,0,0,1-.41-1.79,8.72,8.72,0,0,1,0-1.76,17.05,17.05,0,0,1,.5-3.14c.11-.47.23-.92.35-1.36l.34-1.27c.22-.81.4-1.58.52-2.3a12.18,12.18,0,0,0,.19-2c0-.32,0-.64,0-.95l-.06-.48c0-.15-.06-.31-.09-.45-.06-.29-.14-.56-.22-.82a1.46,1.46,0,0,0-.07-.19l-.07-.18-.08-.18-.08-.16a4.29,4.29,0,0,0-.83-1.16,3.9,3.9,0,0,0-.63-.51,4.75,4.75,0,0,0-.59-.33A4.59,4.59,0,0,0,4,134.62a4.25,4.25,0,0,0-1.7,1.09,3.31,3.31,0,0,0-.39.44l-.18.24a2.46,2.46,0,0,0-.17.27A8.16,8.16,0,0,0,1,137.84h0a.25.25,0,0,1-.15.15.29.29,0,0,1-.39-.16,5.66,5.66,0,0,1-.31-3.11,6.34,6.34,0,0,1,1.58-3.11,6.55,6.55,0,0,1,.6-.58,8.3,8.3,0,0,1,.82-.61,7.93,7.93,0,0,1,1.69-.8,8.75,8.75,0,0,1,1.84-.4c.28,0,.56,0,.84,0Z"/><path class="cls-1" d="M190.57,142.38a4.6,4.6,0,0,1,.62-2.34,4.55,4.55,0,0,1,1.7-1.7,4.65,4.65,0,0,1,2.34-.62,4.6,4.6,0,0,1,2.34.62,4.64,4.64,0,0,1,2.32,4,4.64,4.64,0,0,1-2.32,4,4.6,4.6,0,0,1-2.34.62,4.64,4.64,0,0,1-4.66-4.66Zm.55,0a4,4,0,0,0,.55,2.06,4.1,4.1,0,0,0,1.51,1.5,4,4,0,0,0,2,.55,4.06,4.06,0,0,0,2.07-.55,4.2,4.2,0,0,0,1.49-1.5,4,4,0,0,0,.56-2.05,4,4,0,0,0-.56-2,4.15,4.15,0,0,0-1.49-1.51,4.07,4.07,0,0,0-2.07-.56,4,4,0,0,0-2,.56,4.05,4.05,0,0,0-1.51,1.51,3.94,3.94,0,0,0-.55,2Zm6-1.1a1.79,1.79,0,0,1-.3.94,1.47,1.47,0,0,1-1,.65l1.68,2.29h-1.15l-1.31-2.21h-.75v2.2h-.86v-5.58h1.9a2,2,0,0,1,1.44.68,1.29,1.29,0,0,1,.32.94Zm-2,.86a1.15,1.15,0,0,0,1-.37.87.87,0,0,0,.1-.5,1.15,1.15,0,0,0-.11-.56c-.13-.21-.43-.32-.9-.32h-.85v1.75Z"/></g></g></g></svg>