<svg xmlns="http://www.w3.org/2000/svg" viewBox="0 0 278.09 65.61"><defs><style>.cls-1{fill:#fff;}</style></defs><g id="Layer_2" data-name="Layer 2"><g id="Tail_Matee" data-name="Tail Matee"><g id="Horizontal_Negativo" data-name="Horizontal Negativo"><g id="Horizontal_Negativo-2" data-name="Horizontal Negativo"><path class="cls-1" d="M73.63,16.28a43.87,43.87,0,0,1-1,6.68,58.5,58.5,0,0,1-1.81,6.35c-.56,1.61-1.19,3.2-1.9,4.75a.28.28,0,0,1-.54-.13c.22-3.86.39-7.66.33-11.38a56.1,56.1,0,0,0-.38-6.15c-.13-1-.27-2-.48-2.89a19,19,0,0,0-.78-2.61,8.68,8.68,0,0,0-1.11-2A3.84,3.84,0,0,0,64.69,7.8,3.74,3.74,0,0,0,64,7.56c-.13,0-.26,0-.4-.06a1.7,1.7,0,0,0-.31,0,1.85,1.85,0,0,0-1,.36A6.12,6.12,0,0,0,61,9.07c-.24.29-.47.61-.71.95s-.46.7-.68,1.08a38.28,38.28,0,0,0-2.45,5.14c-.73,1.84-1.41,3.76-2,5.72s-1.18,4-1.68,6c-.25,1-.5,2-.73,3.06l-.33,1.54-.19.88c-.09.35-.18.7-.29,1a12.25,12.25,0,0,1-2,3.84c-.12.14-.23.29-.36.43l-.26.29c-.15.16-.3.32-.44.49-.28.33-.55.67-.8,1a10.9,10.9,0,0,0-2,4.64,13.5,13.5,0,0,0-.2,2.65,10.93,10.93,0,0,0,.09,1.39c0,.24.06.47.1.71l0,.17,0,.23.1.47a14.25,14.25,0,0,1,.11,3.74,14.09,14.09,0,0,1-.82,3.6,18.7,18.7,0,0,1-.77,1.73l-.21.41-.05.12A53.11,53.11,0,0,0,50.64,59c2.16-.62,4.32-1.38,6.47-2.22,1.08-.41,2.15-.87,3.23-1.32L62,54.78c.55-.24,1.09-.48,1.65-.71h0a9.46,9.46,0,0,1-1.2,1.38c-.44.41-.89.8-1.34,1.2-.91.78-1.86,1.52-2.84,2.21a37.8,37.8,0,0,1-6.32,3.6,34.32,34.32,0,0,1-28.77,0,38.84,38.84,0,0,1-6.3-3.62c-1-.69-1.93-1.44-2.84-2.22-.45-.39-.9-.79-1.33-1.2s-.85-.84-1.26-1.28l1.64.7,1.63.69c1.08.46,2.16.91,3.24,1.32,2.15.84,4.31,1.59,6.48,2.2q2.38.69,4.77,1.14l-.15-.3a18.7,18.7,0,0,1-.77-1.73,12.52,12.52,0,0,1-.53-1.78,14.07,14.07,0,0,1-.29-1.82,14.25,14.25,0,0,1,.12-3.74l.09-.47.05-.23,0-.17c0-.24.07-.47.1-.71a10.93,10.93,0,0,0,.09-1.39,14.3,14.3,0,0,0-.21-2.65,10.88,10.88,0,0,0-2-4.64c-.25-.35-.52-.69-.8-1L24.46,39l-.27-.29-.36-.43a12.22,12.22,0,0,1-2-3.84,9.44,9.44,0,0,1-.29-1l-.19-.88L21,31c-.23-1-.48-2-.73-3.06q-.76-3-1.69-6c-.61-2-1.29-3.88-2-5.72a39.52,39.52,0,0,0-2.44-5.14c-.22-.38-.46-.74-.69-1.08s-.47-.66-.71-.95A5.89,5.89,0,0,0,11.4,7.85a1.91,1.91,0,0,0-1-.36,1.79,1.79,0,0,0-.32,0c-.14,0-.26,0-.39.06A3.5,3.5,0,0,0,9,7.8,3.76,3.76,0,0,0,7.73,8.88a8.32,8.32,0,0,0-1.1,2,17.72,17.72,0,0,0-.78,2.61c-.21.93-.36,1.9-.49,2.89A61.53,61.53,0,0,0,5,22.55c-.05,3.72.12,7.52.34,11.38a.28.28,0,0,1-.54.13,51.1,51.1,0,0,1-1.9-4.75A56.37,56.37,0,0,1,1.06,23a43.87,43.87,0,0,1-1-6.68,29.25,29.25,0,0,1,0-3.51A21,21,0,0,1,.54,9.1a15.9,15.9,0,0,1,.57-1.91A12.85,12.85,0,0,1,2,5.26,10.42,10.42,0,0,1,5.17,1.77,10.48,10.48,0,0,1,7.38.64,11.77,11.77,0,0,1,8.53.28,12,12,0,0,1,9.8.05,9.3,9.3,0,0,1,15,1a11.42,11.42,0,0,1,2,1.31,15.43,15.43,0,0,1,1.6,1.5A16.71,16.71,0,0,1,19.91,5.4c.39.53.74,1.06,1.07,1.6a35.37,35.37,0,0,1,3,6.49,85.22,85.22,0,0,1,3.14,13c.19,1.08.36,2.16.54,3.24l.25,1.61.11.7a4.82,4.82,0,0,0,.11.52,5.77,5.77,0,0,0,.83,1.87,1.43,1.43,0,0,0,.14.2l0,.05.07.09.15.19c.19.24.38.5.56.76l.53.79c.16.28.33.55.48.84a15.88,15.88,0,0,1,2,7.44,13.74,13.74,0,0,1-.51,3.75,16.2,16.2,0,0,1-.6,1.74c-.12.28-.23.56-.36.83l-.1.21-.08.15-.14.3a6.79,6.79,0,0,0-.61,2.61c0,.23,0,.45,0,.68v0c0,.22.05.44.1.66a4.88,4.88,0,0,0,.16.66c.07.22.14.43.23.64a4,4,0,0,0,.69,1.12l.11.12.12.14.29.29.51.48a1.93,1.93,0,0,1,0-.24c0-1.62,1.87-2.92,4.18-2.92S41,57.35,41,59a1.94,1.94,0,0,1,0,.24l.52-.48.28-.29.12-.14.11-.12a3.81,3.81,0,0,0,.69-1.12,4.93,4.93,0,0,0,.24-.64c.05-.22.12-.43.16-.66s.07-.44.09-.66v0a5.15,5.15,0,0,0,0-.68,6.78,6.78,0,0,0-.6-2.61l-.15-.3-.07-.15-.1-.21c-.13-.27-.25-.55-.36-.83a16.2,16.2,0,0,1-.6-1.74,13.37,13.37,0,0,1-.51-3.75,15.76,15.76,0,0,1,2-7.44c.15-.29.31-.56.48-.84s.34-.53.53-.79.36-.52.56-.76l.14-.19.07-.09,0-.05c0-.06.09-.13.14-.2a6.23,6.23,0,0,0,.83-1.87c0-.17.07-.35.11-.52l.11-.7.25-1.61c.17-1.08.34-2.16.53-3.24a84.11,84.11,0,0,1,3.15-13,34.71,34.71,0,0,1,3-6.49c.32-.54.68-1.07,1.06-1.6a15.4,15.4,0,0,1,1.29-1.58,14.36,14.36,0,0,1,1.59-1.5,11.42,11.42,0,0,1,2-1.31,9.7,9.7,0,0,1,2.5-.85,9.43,9.43,0,0,1,2.7-.11,12.14,12.14,0,0,1,1.28.23c.38.1.77.22,1.15.36a10.65,10.65,0,0,1,2.2,1.13,10.46,10.46,0,0,1,3.17,3.49,12.85,12.85,0,0,1,.9,1.93,15.82,15.82,0,0,1,.56,1.91,20.1,20.1,0,0,1,.51,3.67A29.25,29.25,0,0,1,73.63,16.28Z"/><path class="cls-1" d="M54.3,41.22c-3.47.43-6,2.91-5.71,5.52a3.85,3.85,0,0,0,.67,1.72l.42.59.27-.68a5.88,5.88,0,0,1,4.84-3.2,5.88,5.88,0,0,1,5.47,1.93l.42.59.26-.68a3.61,3.61,0,0,0,.24-1.83C60.86,42.57,57.77,40.8,54.3,41.22Z"/><path class="cls-1" d="M12.52,45a3.73,3.73,0,0,0,.23,1.83l.26.68.42-.6c1-1.43,3.21-2.2,5.48-1.92s4.21,1.56,4.84,3.19l.26.69.42-.6a3.7,3.7,0,0,0,.67-1.72c.33-2.61-2.23-5.08-5.7-5.51S12.84,42.4,12.52,45Z"/><path class="cls-1" d="M186.05,33.54V54.11H177.3V33.23l-6.62,20.88h-4.74l-6.63-20.88V54.11h-4.62V33.54a6.4,6.4,0,0,1,6.41-6.4h.09a6.39,6.39,0,0,1,6.14,4.58l3.1,10.46,3.07-10.44a6.4,6.4,0,0,1,6.14-4.6h0A6.4,6.4,0,0,1,186.05,33.54Z"/><path class="cls-1" d="M200.18,54.36a8.23,8.23,0,0,1-3.32.65A10.39,10.39,0,0,1,191,53.44a5.17,5.17,0,0,1-2.37-4.6,5.16,5.16,0,0,1,3.72-5.27,28,28,0,0,1,9.44-1.35V38.66a7.08,7.08,0,0,0-.47-2.86,1.81,1.81,0,0,0-1.82-1q-2.89,0-2.9,3.72a17.12,17.12,0,0,0,.16,2,2.23,2.23,0,0,1-1,.29,11.63,11.63,0,0,1-1.23.08,6,6,0,0,1-3.27-.84,2.82,2.82,0,0,1-1.3-2.55c0-1.8,1-3.09,3-3.89a18.5,18.5,0,0,1,6.79-1.18q4.86,0,7.44,1.72t2.57,6v9.2a6.78,6.78,0,0,0,1.27,4.29,4.15,4.15,0,0,1-1.7.82,8.11,8.11,0,0,1-2.06.29q-3.81,0-5-2.46A4.08,4.08,0,0,1,200.18,54.36Zm1-3.48a6.66,6.66,0,0,0,.61-3v-3.6a6.22,6.22,0,0,0-3.88,1,4.05,4.05,0,0,0-1.31,3.4,4.44,4.44,0,0,0,.63,2.47,2.16,2.16,0,0,0,1.94,1A2.09,2.09,0,0,0,201.16,50.88Z"/><path class="cls-1" d="M211.07,35.11V33.84a26.51,26.51,0,0,0,4.43-2.15,19.46,19.46,0,0,0,3.86-2.88h2.29v4.46h3.72v1.84h-3.72V49.37a3.49,3.49,0,0,0,.49,2,2.65,2.65,0,0,0,1.64,1,3.76,3.76,0,0,1-2,1.8,7.5,7.5,0,0,1-2.95.58A5.36,5.36,0,0,1,215,53.42a5.05,5.05,0,0,1-1.35-3.8V35.11Z"/><path class="cls-1" d="M244.06,48a3.33,3.33,0,0,1,.29,1.37,4.3,4.3,0,0,1-1.23,3.11A7.47,7.47,0,0,1,240,54.4a12.9,12.9,0,0,1-4,.61q-5.26,0-8.15-3c-1.92-2-2.88-4.85-2.88-8.44s1-6.41,3-8.28,4.91-2.8,8.65-2.8a11.84,11.84,0,0,1,6.09,1.47,4.84,4.84,0,0,1,2.49,4.46q0,3.67-2.66,5a16.05,16.05,0,0,1-7.31,1.37,13.86,13.86,0,0,1-2.09-.12,7.67,7.67,0,0,0,1.17,4,3.74,3.74,0,0,0,3.29,1.41,7.28,7.28,0,0,0,3.27-.76,5.09,5.09,0,0,0,2.28-2.19A1.8,1.8,0,0,1,244.06,48ZM237,41.83a4.2,4.2,0,0,0,1.25-3.45,5.45,5.45,0,0,0-.51-2.48,1.74,1.74,0,0,0-1.66-1c-1.88,0-2.86,2.65-2.94,7.93A6.11,6.11,0,0,0,237,41.83Z"/><path class="cls-1" d="M265.85,48a3.33,3.33,0,0,1,.29,1.37,4.3,4.3,0,0,1-1.23,3.11,7.47,7.47,0,0,1-3.12,1.88,12.9,12.9,0,0,1-4,.61q-5.27,0-8.15-3c-1.92-2-2.88-4.85-2.88-8.44s1-6.41,3-8.28,4.91-2.8,8.65-2.8a11.84,11.84,0,0,1,6.09,1.47A4.84,4.84,0,0,1,267,38.38q0,3.67-2.66,5a16.05,16.05,0,0,1-7.31,1.37,13.86,13.86,0,0,1-2.09-.12,7.67,7.67,0,0,0,1.17,4,3.74,3.74,0,0,0,3.29,1.41,7.28,7.28,0,0,0,3.27-.76A5.16,5.16,0,0,0,265,47.12,1.82,1.82,0,0,1,265.85,48Zm-7.05-6.21a4.2,4.2,0,0,0,1.25-3.45,5.45,5.45,0,0,0-.51-2.48,1.74,1.74,0,0,0-1.66-1c-1.88,0-2.86,2.65-2.94,7.93A6.11,6.11,0,0,0,258.8,41.83Z"/><path class="cls-1" d="M149,46.25a9.87,9.87,0,0,1-.7,1.21l-.19.27-.19.25a4.42,4.42,0,0,1-.42.44,4.56,4.56,0,0,1-1.81,1.07,4.78,4.78,0,0,1-3.48-.3,4.5,4.5,0,0,1-1.24-.92,4.86,4.86,0,0,1-.82-1.24l-.07-.17-.08-.19-.07-.19-.06-.2a7.22,7.22,0,0,1-.2-.86c0-.14,0-.32-.07-.48a4,4,0,0,1,0-.49c0-.33,0-.66,0-1a12.57,12.57,0,0,1,.27-2.11c.16-.74.38-1.53.63-2.37l.41-1.3c.13-.46.28-.92.42-1.41a18.59,18.59,0,0,0,.64-3.24,11.41,11.41,0,0,0,0-1.85,8.67,8.67,0,0,0-.36-1.88,8,8,0,0,0-.76-1.71,9.21,9.21,0,0,0-1.06-1.42,10.71,10.71,0,0,0-2.52-2,13.55,13.55,0,0,0-2.76-1.23.45.45,0,0,0-.56.29.48.48,0,0,0,.06.39h0c.57.79,1.12,1.54,1.6,2.3a11.56,11.56,0,0,1,1.14,2.24,5.38,5.38,0,0,1,.33,2,6.28,6.28,0,0,1-.42,1.86c-.48,1.31-1.36,2.83-2.19,4.65a23,23,0,0,0-1.13,2.95,16.31,16.31,0,0,0-.65,3.42,15.62,15.62,0,0,0,0,1.81c0,.31,0,.61.08.91s.07.59.14.91a12.7,12.7,0,0,0,.5,1.85l.18.47.2.45.23.45c.08.15.16.3.25.44a9.4,9.4,0,0,0,2.78,3,9.25,9.25,0,0,0,3.77,1.54,8.5,8.5,0,0,0,3.93-.24,7.68,7.68,0,0,0,1.79-.77A7.59,7.59,0,0,0,148,52.71a6.55,6.55,0,0,0,1.76-3.19,5.82,5.82,0,0,0-.2-3.25.3.3,0,0,0-.39-.18.26.26,0,0,0-.17.15Z"/><path class="cls-1" d="M109,54.36a8.15,8.15,0,0,1-3.31.65,10.43,10.43,0,0,1-5.89-1.57,5.17,5.17,0,0,1-2.37-4.6,5.16,5.16,0,0,1,3.72-5.27,28,28,0,0,1,9.44-1.35V38.66a6.91,6.91,0,0,0-.47-2.86,1.79,1.79,0,0,0-1.81-1q-2.91,0-2.91,3.72a17.55,17.55,0,0,0,.17,2,2.23,2.23,0,0,1-1,.29,12,12,0,0,1-1.23.08,5.93,5.93,0,0,1-3.27-.84,2.83,2.83,0,0,1-1.31-2.55c0-1.8,1-3.09,3-3.89a18.41,18.41,0,0,1,6.78-1.18q4.86,0,7.44,1.72t2.58,6v9.2a6.84,6.84,0,0,0,1.26,4.29,4.11,4.11,0,0,1-1.69.82,8.18,8.18,0,0,1-2.07.29q-3.8,0-5-2.46A4.1,4.1,0,0,1,109,54.36Zm1-3.48a6.66,6.66,0,0,0,.61-3v-3.6a6.24,6.24,0,0,0-3.88,1,4.08,4.08,0,0,0-1.31,3.4,4.36,4.36,0,0,0,.64,2.47,2.16,2.16,0,0,0,1.94,1A2.07,2.07,0,0,0,109.93,50.88Z"/><path class="cls-1" d="M128.94,24.32a2.79,2.79,0,0,1,1.18,2.41,2.76,2.76,0,0,1-1.24,2.41,5.65,5.65,0,0,1-3.25.86,5.43,5.43,0,0,1-3.17-.84,2.71,2.71,0,0,1-1.21-2.35,2.81,2.81,0,0,1,1.29-2.47,5.61,5.61,0,0,1,3.25-.88A5.2,5.2,0,0,1,128.94,24.32Zm.69,25a6.78,6.78,0,0,0,1.27,4.29,4.12,4.12,0,0,1-1.72.82,8.32,8.32,0,0,1-2.08.29A5.92,5.92,0,0,1,123,53.46a4.92,4.92,0,0,1-1.41-3.84V33.27h8Z"/><path class="cls-1" d="M101.75,22.56V29H96v6a15.08,15.08,0,0,1-.5,3.29,20,20,0,0,1-1,2.86C93.78,43,93,44.44,92.58,45.71a6.24,6.24,0,0,0-.33,1.79,4.86,4.86,0,0,0,.39,1.91,9.47,9.47,0,0,0,.8,1.54c.11.18.23.36.36.55.48.7,1,1.4,1.61,2.14h0a.44.44,0,0,1,.08.37.42.42,0,0,1-.52.3,12.53,12.53,0,0,1-2.68-1.08,10,10,0,0,1-2.48-1.82c-.14-.15-.28-.3-.41-.46a7.11,7.11,0,0,1-.64-.86A7.3,7.3,0,0,1,88,48.48a8.38,8.38,0,0,1-.42-1.78,9.38,9.38,0,0,1,0-1.75A17.74,17.74,0,0,1,88,41.83c.11-.47.24-.92.35-1.36l.34-1.26c.22-.81.4-1.57.52-2.28a12.16,12.16,0,0,0,.19-2c0-.33,0-.64-.06-.95s0-.31,0-.47-.06-.32-.09-.46-.14-.55-.22-.81c0-.06,0-.12-.07-.19l-.07-.17-.08-.18-.08-.17a4.36,4.36,0,0,0-.82-1.15,4.47,4.47,0,0,0-.63-.5,4.75,4.75,0,0,0-.59-.33,4.53,4.53,0,0,0-3.32-.16,4.19,4.19,0,0,0-1.69,1.08,3.25,3.25,0,0,0-.38.44l-.19.24c0,.09-.11.17-.17.26a10,10,0,0,0-.61,1.18h0a.25.25,0,0,1-.15.15.31.31,0,0,1-.39-.16,5.6,5.6,0,0,1-.3-3.09A6.21,6.21,0,0,1,81,26.38a5.44,5.44,0,0,1,.6-.57,6.06,6.06,0,0,1,.81-.6,8,8,0,0,1,1.67-.8,8.88,8.88,0,0,1,1.84-.4c.28,0,.56,0,.83,0Z"/><path class="cls-1" d="M268.82,37.08a4.64,4.64,0,0,1,2.3-4,4.69,4.69,0,0,1,4.66,0,4.5,4.5,0,0,1,1.69,1.69,4.63,4.63,0,0,1-4,7,4.62,4.62,0,0,1-2.33-.62,4.54,4.54,0,0,1-1.68-1.69,4.49,4.49,0,0,1-.62-2.33Zm.54,0a4,4,0,0,0,.55,2,4,4,0,0,0,1.5,1.49A4.07,4.07,0,0,0,277,35a4,4,0,0,0-1.49-1.5,4.08,4.08,0,0,0-4.09,0,4.15,4.15,0,0,0-1.5,1.5,4,4,0,0,0-.55,2Zm6-1.09a1.82,1.82,0,0,1-.3.94,1.47,1.47,0,0,1-1,.64l1.68,2.28h-1.15l-1.3-2.19h-.75v2.18h-.85V34.28h1.89a2,2,0,0,1,1.43.67,1.31,1.31,0,0,1,.32.94Zm-2,.86a1.12,1.12,0,0,0,1-.37.87.87,0,0,0,.1-.5,1,1,0,0,0-.11-.55c-.12-.22-.42-.32-.89-.32h-.85v1.74Z"/></g></g></g></g></svg>