<svg xmlns="http://www.w3.org/2000/svg" viewBox="0 0 276.08 45.07"><defs><style>.cls-1{fill:#fff;}</style></defs><g id="Layer_2" data-name="Layer 2"><g id="Tail_Matee" data-name="Tail Matee"><g id="Logotipo_Negativo" data-name="Logotipo Negativo"><g id="Logotipo_Negativo-2" data-name="Logotipo Negativo"><path class="cls-1" d="M148.23,15.25V43.83H136.08v-29l-9.2,29h-6.59l-9.19-29v29h-6.42V15.25a8.9,8.9,0,0,1,8.9-8.9h.13a8.9,8.9,0,0,1,8.53,6.37l4.3,14.53,4.26-14.51a8.9,8.9,0,0,1,8.53-6.39h0A8.91,8.91,0,0,1,148.23,15.25Z"/><path class="cls-1" d="M167.86,44.17a11.34,11.34,0,0,1-4.6.9,14.46,14.46,0,0,1-8.18-2.18,7.2,7.2,0,0,1-3.29-6.39A7.18,7.18,0,0,1,157,29.18a39,39,0,0,1,13.12-1.88V22.36a9.84,9.84,0,0,0-.65-4A2.51,2.51,0,0,0,166.89,17q-4,0-4,5.17a22.88,22.88,0,0,0,.23,2.84,3,3,0,0,1-1.37.39,13.93,13.93,0,0,1-1.7.12,8.21,8.21,0,0,1-4.54-1.17,3.93,3.93,0,0,1-1.82-3.55q0-3.73,4.2-5.39a25.63,25.63,0,0,1,9.43-1.65q6.75,0,10.33,2.39t3.58,8.29V37.18a9.41,9.41,0,0,0,1.76,6,5.85,5.85,0,0,1-2.36,1.14,11.44,11.44,0,0,1-2.86.4c-3.53,0-5.83-1.14-6.93-3.41A5.68,5.68,0,0,1,167.86,44.17Zm1.36-4.83a9.3,9.3,0,0,0,.85-4.2v-5a8.69,8.69,0,0,0-5.39,1.42c-1.22.95-1.82,2.52-1.82,4.71a6.12,6.12,0,0,0,.88,3.44,3,3,0,0,0,2.7,1.33A2.89,2.89,0,0,0,169.22,39.34Z"/><path class="cls-1" d="M183,17.42V15.66a36.07,36.07,0,0,0,6.16-3,26.56,26.56,0,0,0,5.37-4h3.18v6.19h5.17v2.55h-5.17V37.24a4.84,4.84,0,0,0,.68,2.75,3.64,3.64,0,0,0,2.27,1.39,5.21,5.21,0,0,1-2.72,2.5,10.4,10.4,0,0,1-4.09.8,7.46,7.46,0,0,1-5.4-1.82,7,7,0,0,1-1.87-5.28V17.42Z"/><path class="cls-1" d="M228.82,35.39a4.67,4.67,0,0,1,.4,1.91,5.94,5.94,0,0,1-1.71,4.31,10.14,10.14,0,0,1-4.34,2.61,17.88,17.88,0,0,1-5.54.85c-4.88,0-8.65-1.4-11.32-4.23s-4-6.72-4-11.72,1.41-8.9,4.23-11.5,6.83-3.89,12-3.89a16.31,16.31,0,0,1,8.46,2A6.71,6.71,0,0,1,230.47,22q0,5.1-3.69,7c-2.47,1.27-5.85,1.9-10.17,1.9a19.11,19.11,0,0,1-2.89-.17,10.74,10.74,0,0,0,1.61,5.54c.93,1.3,2.45,2,4.58,2a9.9,9.9,0,0,0,4.54-1.05,7.18,7.18,0,0,0,3.18-3A2.55,2.55,0,0,1,228.82,35.39ZM219,26.76q1.72-1.38,1.73-4.79a7.55,7.55,0,0,0-.71-3.44,2.4,2.4,0,0,0-2.3-1.39q-3.92,0-4.09,11Q217.29,28.16,219,26.76Z"/><path class="cls-1" d="M259.09,35.39a4.67,4.67,0,0,1,.4,1.91,5.94,5.94,0,0,1-1.71,4.31,10.14,10.14,0,0,1-4.34,2.61,17.88,17.88,0,0,1-5.54.85c-4.88,0-8.66-1.4-11.32-4.23s-4-6.72-4-11.72,1.41-8.9,4.23-11.5,6.82-3.89,12-3.89a16.31,16.31,0,0,1,8.46,2A6.7,6.7,0,0,1,260.73,22q0,5.1-3.69,7t-10.16,1.9a19.11,19.11,0,0,1-2.89-.17,10.74,10.74,0,0,0,1.61,5.54,5.23,5.23,0,0,0,4.57,2,9.91,9.91,0,0,0,4.55-1.05,7.18,7.18,0,0,0,3.18-3A2.59,2.59,0,0,1,259.09,35.39Zm-9.8-8.63Q251,25.38,251,22a7.55,7.55,0,0,0-.71-3.44,2.4,2.4,0,0,0-2.3-1.39q-3.93,0-4.09,11Q247.56,28.16,249.29,26.76Z"/><path class="cls-1" d="M96.71,32.9a14.14,14.14,0,0,1-1,1.69l-.27.37-.27.34c-.19.22-.38.43-.58.62a6.29,6.29,0,0,1-2.52,1.48A6.6,6.6,0,0,1,87.28,37a5.87,5.87,0,0,1-1.72-1.27A6.86,6.86,0,0,1,84.42,34l-.1-.24-.1-.26-.1-.27L84,33c-.1-.38-.2-.78-.27-1.2,0-.2-.07-.44-.1-.66s0-.46-.06-.69a12.6,12.6,0,0,1,0-1.38A17.56,17.56,0,0,1,84,26.08c.21-1,.52-2.12.88-3.29L85.39,21c.19-.63.39-1.28.58-2a24.9,24.9,0,0,0,.89-4.5,15.55,15.55,0,0,0,0-2.56,12.3,12.3,0,0,0-.51-2.61A11.12,11.12,0,0,0,85.32,7a12.56,12.56,0,0,0-1.47-2,14.81,14.81,0,0,0-3.5-2.78A18.48,18.48,0,0,0,76.51.5a.62.62,0,0,0-.77.4.63.63,0,0,0,.09.55h0c.79,1.1,1.56,2.15,2.23,3.2a16.29,16.29,0,0,1,1.58,3.11,7.27,7.27,0,0,1,.46,2.79,8.64,8.64,0,0,1-.59,2.58c-.65,1.82-1.88,3.94-3,6.46A31.71,31.71,0,0,0,74.9,23.7a21.84,21.84,0,0,0-.9,4.75A21,21,0,0,0,74,31c0,.42.06.84.11,1.26s.1.83.19,1.26a15.2,15.2,0,0,0,.7,2.58c.08.22.16.43.25.64l.27.64c.11.21.21.42.32.62l.34.62a14.45,14.45,0,0,0,1.7,2.29A13.08,13.08,0,0,0,80,42.77a12.89,12.89,0,0,0,5.24,2.14,12.27,12.27,0,0,0,2.77.14,11.58,11.58,0,0,0,2.69-.47,11,11,0,0,0,2.48-1.08,10.23,10.23,0,0,0,2.12-1.63,9,9,0,0,0,2.44-4.42,8.08,8.08,0,0,0-.27-4.52.43.43,0,0,0-.55-.25.42.42,0,0,0-.24.21Z"/><path class="cls-1" d="M41.14,44.17a11.34,11.34,0,0,1-4.6.9,14.46,14.46,0,0,1-8.18-2.18,7.2,7.2,0,0,1-3.29-6.39,7.17,7.17,0,0,1,5.17-7.32A38.88,38.88,0,0,1,43.35,27.3V22.36a9.84,9.84,0,0,0-.65-4A2.51,2.51,0,0,0,40.17,17q-4,0-4,5.17A25,25,0,0,0,36.37,25a3,3,0,0,1-1.36.39,14.22,14.22,0,0,1-1.71.12,8.24,8.24,0,0,1-4.54-1.17,3.93,3.93,0,0,1-1.82-3.55q0-3.73,4.2-5.39a25.67,25.67,0,0,1,9.43-1.65q6.75,0,10.33,2.39t3.58,8.29V37.18a9.47,9.47,0,0,0,1.76,6,5.78,5.78,0,0,1-2.36,1.14,11.38,11.38,0,0,1-2.86.4q-5.28,0-6.93-3.41A5.68,5.68,0,0,1,41.14,44.17Zm1.36-4.83a9.3,9.3,0,0,0,.85-4.2v-5A8.69,8.69,0,0,0,38,31.56Q36.14,33,36.14,36.27A6.12,6.12,0,0,0,37,39.71,3,3,0,0,0,39.72,41,2.89,2.89,0,0,0,42.5,39.34Z"/><path class="cls-1" d="M68.9,2.44a3.88,3.88,0,0,1,1.65,3.34,3.84,3.84,0,0,1-1.73,3.35,7.79,7.79,0,0,1-4.52,1.2,7.55,7.55,0,0,1-4.4-1.17A3.75,3.75,0,0,1,58.23,5.9,3.92,3.92,0,0,1,60,2.46a7.84,7.84,0,0,1,4.51-1.22A7.25,7.25,0,0,1,68.9,2.44Zm1,34.74a9.41,9.41,0,0,0,1.76,6,5.86,5.86,0,0,1-2.39,1.14,11.8,11.8,0,0,1-2.89.4,8.19,8.19,0,0,1-5.65-1.76,6.81,6.81,0,0,1-2-5.34V14.87H69.87Z"/><path class="cls-1" d="M31.13,0V9h-8v8.4a21.51,21.51,0,0,1-.69,4.56,30.9,30.9,0,0,1-1.36,4c-1,2.44-2.1,4.5-2.67,6.27a8.37,8.37,0,0,0-.46,2.47,7.1,7.1,0,0,0,.53,2.66,13,13,0,0,0,1.13,2.14c.15.26.32.51.49.76.67,1,1.44,2,2.23,3h0a.63.63,0,0,1,.11.52.6.6,0,0,1-.73.41A18.1,18.1,0,0,1,18,42.61a14.32,14.32,0,0,1-3.45-2.54c-.19-.2-.39-.41-.58-.64a9.91,9.91,0,0,1-.88-1.19A10.37,10.37,0,0,1,12,36a11.07,11.07,0,0,1-.57-2.47,13.37,13.37,0,0,1-.07-2.44A24.83,24.83,0,0,1,12,26.76c.15-.65.33-1.27.49-1.88L13,23.13c.3-1.13.55-2.18.72-3.17A17.64,17.64,0,0,0,14,17.15c0-.45,0-.89-.07-1.32,0-.22-.05-.43-.08-.65s-.08-.44-.12-.63a11.61,11.61,0,0,0-.3-1.13c0-.08-.06-.18-.1-.26l-.1-.25-.1-.24L13,12.43a5.94,5.94,0,0,0-1.15-1.59,6,6,0,0,0-.86-.71,6.41,6.41,0,0,0-.82-.45,6.34,6.34,0,0,0-4.62-.23A5.9,5.9,0,0,0,3.19,11a5.13,5.13,0,0,0-.54.6l-.25.34-.24.37a13.21,13.21,0,0,0-.85,1.64h0a.43.43,0,0,1-.21.21.43.43,0,0,1-.54-.22,7.82,7.82,0,0,1-.42-4.3,8.59,8.59,0,0,1,2.18-4.3,9,9,0,0,1,.83-.8,8.49,8.49,0,0,1,1.13-.84A10.84,10.84,0,0,1,6.6,2.56,11,11,0,0,1,9.15,2,11.12,11.12,0,0,1,10.31,2Z"/><path class="cls-1" d="M263.21,20.17a6.44,6.44,0,0,1,3.2-5.58,6.51,6.51,0,0,1,6.47,0,6.28,6.28,0,0,1,2.34,2.35,6.48,6.48,0,0,1,0,6.45,6.26,6.26,0,0,1-2.34,2.34,6.51,6.51,0,0,1-6.47,0,6.41,6.41,0,0,1-3.2-5.58Zm.75,0a5.53,5.53,0,0,0,.76,2.85,5.68,5.68,0,0,0,2.09,2.07,5.49,5.49,0,0,0,2.83.77,5.59,5.59,0,0,0,2.85-.77A5.71,5.71,0,0,0,274.56,23a5.59,5.59,0,0,0,0-5.66,5.68,5.68,0,0,0-2.07-2.09,5.59,5.59,0,0,0-2.85-.77,5.49,5.49,0,0,0-2.83.77,5.66,5.66,0,0,0-2.09,2.09,5.46,5.46,0,0,0-.76,2.83Zm8.35-1.51a2.53,2.53,0,0,1-.41,1.3,2,2,0,0,1-1.35.89L272.88,24h-1.6L269.47,21h-1v3h-1.18V16.28h2.62a2.76,2.76,0,0,1,2,.94,1.84,1.84,0,0,1,.44,1.3Zm-2.82,1.19a1.59,1.59,0,0,0,1.38-.52,1.22,1.22,0,0,0,.14-.69,1.39,1.39,0,0,0-.16-.76c-.17-.3-.58-.45-1.24-.45h-1.18v2.42Z"/></g></g></g></g></svg>