<svg xmlns="http://www.w3.org/2000/svg" viewBox="0 0 187.94 167.31"><defs><style>.cls-1{fill:#fff;}</style></defs><g id="Layer_2" data-name="Layer 2"><g id="Tail_Matee" data-name="Tail Matee"><g id="Isotipo_Símbolo_Negativo" data-name="Isotipo / Símbolo Negativo"><g id="Isotipo_Símbolo_Negativo-2" data-name="Isotipo / Símbolo Negativo"><path class="cls-1" d="M149.26,160.86a6.46,6.46,0,1,1,12.92,0,6.45,6.45,0,0,1-3.21,5.59,6.57,6.57,0,0,1-6.5,0,6.45,6.45,0,0,1-3.21-5.6Zm.75,0a5.63,5.63,0,0,0,.77,2.86,5.79,5.79,0,0,0,2.09,2.08,5.54,5.54,0,0,0,2.85.77,5.6,5.6,0,0,0,2.86-.77,5.84,5.84,0,0,0,2.08-2.08,5.66,5.66,0,0,0,0-5.7,5.71,5.71,0,0,0-2.08-2.09,5.6,5.6,0,0,0-2.86-.77,5.54,5.54,0,0,0-2.85.77,5.66,5.66,0,0,0-2.09,2.09,5.59,5.59,0,0,0-.77,2.85Zm8.39-1.53a2.49,2.49,0,0,1-.42,1.31,2,2,0,0,1-1.35.89l2.34,3.19h-1.6l-1.82-3.06H154.5v3h-1.18V157h2.06l.57,0a2.7,2.7,0,0,1,2,.94,1.8,1.8,0,0,1,.45,1.3Zm-2.83,1.2A1.59,1.59,0,0,0,157,160a1.22,1.22,0,0,0,.14-.69,1.51,1.51,0,0,0-.15-.77c-.18-.3-.59-.45-1.25-.45H154.5v2.43Z"/><path class="cls-1" d="M187.76,41.53a111.46,111.46,0,0,1-2.54,17,147.11,147.11,0,0,1-4.62,16.19c-1.44,4.11-3,8.17-4.85,12.12a.73.73,0,0,1-1.38-.35c.57-9.84,1-19.52.86-29a150.66,150.66,0,0,0-1-15.67c-.33-2.53-.7-5-1.24-7.38a45.37,45.37,0,0,0-2-6.64,21.85,21.85,0,0,0-2.82-5.16A9.41,9.41,0,0,0,165,19.9a8.78,8.78,0,0,0-2.78-.78,4.34,4.34,0,0,0-.79,0,5,5,0,0,0-2.53.91,15.44,15.44,0,0,0-3.38,3.13c-.61.72-1.2,1.54-1.8,2.41s-1.19,1.79-1.76,2.77a98.91,98.91,0,0,0-6.23,13.1c-1.87,4.69-3.6,9.59-5.16,14.59s-3,10.1-4.29,15.27c-.64,2.59-1.28,5.18-1.85,7.8L133.54,83l-.48,2.24c-.22.89-.45,1.76-.73,2.63a31.34,31.34,0,0,1-5.17,9.8c-.3.37-.6.74-.93,1.09l-.66.75c-.39.41-.76.83-1.12,1.26-.72.84-1.42,1.71-2,2.6a27.84,27.84,0,0,0-5.11,11.83,36.39,36.39,0,0,0-.53,6.76,32.69,32.69,0,0,0,.23,3.54c.07.6.16,1.2.26,1.8l.08.45.11.58.24,1.2a36.37,36.37,0,0,1,.3,9.53,33.12,33.12,0,0,1-.75,4.65,31,31,0,0,1-1.34,4.54,46,46,0,0,1-2,4.4l-.53,1.06-.14.3a129.52,129.52,0,0,0,15.88-3.55c5.53-1.58,11-3.5,16.51-5.65,2.76-1.05,5.48-2.21,8.24-3.36l4.14-1.78c1.38-.61,2.77-1.22,4.19-1.79h0a25.37,25.37,0,0,1-3.06,3.5c-1.1,1-2.25,2-3.4,3.06q-3.5,3-7.26,5.64a98.63,98.63,0,0,1-16.1,9.2A87.69,87.69,0,0,1,59,159.23,98.66,98.66,0,0,1,43,150q-3.77-2.67-7.25-5.66c-1.15-1-2.29-2-3.39-3.07s-2.18-2.14-3.22-3.25c1.43.56,2.81,1.17,4.19,1.78l4.16,1.76c2.76,1.15,5.49,2.31,8.25,3.36,5.5,2.13,11,4,16.54,5.62q6.06,1.74,12.17,2.89l-.39-.77a45.93,45.93,0,0,1-2-4.4,29.84,29.84,0,0,1-1.35-4.54,34.65,34.65,0,0,1-.75-4.65,36.81,36.81,0,0,1,.3-9.53l.24-1.2.11-.58.08-.45c.11-.6.19-1.2.26-1.8a28.3,28.3,0,0,0,.23-3.54,35.56,35.56,0,0,0-.52-6.76,27.84,27.84,0,0,0-5.11-11.83c-.64-.89-1.33-1.76-2.05-2.6-.37-.43-.74-.85-1.13-1.26l-.66-.75c-.32-.35-.62-.72-.92-1.09a31.13,31.13,0,0,1-5.17-9.8c-.29-.87-.52-1.74-.73-2.63L54.39,83l-.85-3.94c-.58-2.62-1.21-5.21-1.86-7.8Q49.76,63.53,47.39,56c-1.55-5-3.29-9.9-5.16-14.59A96.46,96.46,0,0,0,36,28.32c-.56-1-1.15-1.91-1.75-2.77s-1.2-1.69-1.81-2.41A15.42,15.42,0,0,0,29.07,20a5,5,0,0,0-2.53-.91,4.45,4.45,0,0,0-.8,0,7.44,7.44,0,0,0-1,.17A7.7,7.7,0,0,0,23,19.9a9.32,9.32,0,0,0-3.25,2.75,21.85,21.85,0,0,0-2.82,5.16,46.62,46.62,0,0,0-2,6.64c-.54,2.37-.9,4.85-1.23,7.38a150.63,150.63,0,0,0-1,15.67c-.13,9.5.3,19.18.86,29a.73.73,0,0,1-1.38.35c-1.82-4-3.41-8-4.84-12.12A147.15,147.15,0,0,1,2.71,58.56a110.23,110.23,0,0,1-2.53-17,74,74,0,0,1-.08-9A52.12,52.12,0,0,1,1.38,23.2a40.57,40.57,0,0,1,1.44-4.87,33.47,33.47,0,0,1,2.3-4.92A26.52,26.52,0,0,1,13.2,4.52a26.11,26.11,0,0,1,5.61-2.88A30.15,30.15,0,0,1,21.75.72,27,27,0,0,1,25,.14a23.22,23.22,0,0,1,6.9.27,24.8,24.8,0,0,1,6.37,2.17,29.73,29.73,0,0,1,5.18,3.34A35.51,35.51,0,0,1,47.5,9.75a42.41,42.41,0,0,1,3.28,4q1.47,2,2.71,4.09A87.7,87.7,0,0,1,61.06,34.4c3.82,11.08,6.09,22.18,8,33.21.49,2.75.91,5.51,1.36,8.25L71.09,80l.28,1.78c.09.45.16.9.28,1.33a15.27,15.27,0,0,0,2.12,4.78c.12.17.23.34.35.5l.1.13.17.23.38.48c.5.62,1,1.28,1.43,1.94s.9,1.34,1.34,2,.85,1.39,1.23,2.12a40.32,40.32,0,0,1,5,19,34.91,34.91,0,0,1-1.3,9.56,40.91,40.91,0,0,1-1.53,4.45c-.29.71-.6,1.42-.92,2.12l-.25.52-.19.4-.38.75a17.31,17.31,0,0,0-1.54,6.66c0,.58,0,1.15,0,1.73v0c.07.57.13,1.15.24,1.7s.27,1.13.41,1.69a15.58,15.58,0,0,0,.6,1.61,9.69,9.69,0,0,0,1.76,2.87l.27.31.32.34.72.74c.43.42.86.84,1.32,1.23a4.08,4.08,0,0,1,0-.61c0-4.12,4.77-7.45,10.66-7.45s10.66,3.33,10.66,7.45a4.08,4.08,0,0,1,0,.61c.45-.39.89-.81,1.31-1.23l.73-.74.31-.34.28-.31A9.87,9.87,0,0,0,109,145.5a15.65,15.65,0,0,0,.61-1.61c.13-.56.31-1.11.41-1.69s.17-1.13.23-1.7v0c0-.58.06-1.15,0-1.73a17.31,17.31,0,0,0-1.53-6.66l-.38-.75-.19-.4-.25-.52c-.33-.7-.63-1.41-.93-2.12a43.13,43.13,0,0,1-1.52-4.45,34.91,34.91,0,0,1-1.31-9.56,40.45,40.45,0,0,1,5-19c.38-.73.81-1.42,1.23-2.12s.87-1.38,1.34-2,.93-1.32,1.43-1.94l.37-.48.18-.23.09-.13c.13-.16.24-.33.36-.5a15.25,15.25,0,0,0,2.11-4.78c.12-.43.2-.88.28-1.33l.28-1.78.64-4.11c.45-2.74.88-5.5,1.36-8.25,2-11,4.21-22.13,8-33.21a88.28,88.28,0,0,1,7.56-16.55c.83-1.37,1.73-2.73,2.72-4.09a40.91,40.91,0,0,1,3.28-4,33.92,33.92,0,0,1,4.06-3.83,29.63,29.63,0,0,1,5.17-3.34A24.74,24.74,0,0,1,156.05.41a23.14,23.14,0,0,1,6.89-.27,26.79,26.79,0,0,1,3.25.58c1,.25,2,.56,2.94.92a25.71,25.71,0,0,1,13.69,11.77,33.47,33.47,0,0,1,2.3,4.92,42.49,42.49,0,0,1,1.44,4.87,53,53,0,0,1,1.28,9.38A74,74,0,0,1,187.76,41.53Z"/><path class="cls-1" d="M138.47,105.13c-8.85,1.09-15.38,7.4-14.56,14.06a9.58,9.58,0,0,0,1.72,4.38l1.07,1.52.67-1.74c1.61-4.16,6.57-7.44,12.35-8.16s11.38,1.26,13.95,4.92l1.08,1.52.67-1.74a9.61,9.61,0,0,0,.6-4.66C155.2,108.57,147.32,104,138.47,105.13Z"/><path class="cls-1" d="M31.92,114.78a9.49,9.49,0,0,0,.6,4.66l.67,1.74,1.07-1.52c2.57-3.65,8.18-5.63,14-4.91s10.74,4,12.34,8.16l.67,1.74,1.08-1.53A9.57,9.57,0,0,0,64,118.74c.82-6.66-5.71-13-14.56-14.06S32.74,108.12,31.92,114.78Z"/></g></g></g></g></svg>